####
#
# OBJ File Generated by Meshlab
#
####
# Object part5_edited.obj
#
# Vertices: 33
# Faces: 44
#
####
mtllib ./part5_edited.obj.mtl

vn 1.566828 -1.570791 -1.568277
v 0.026911 -0.010011 0.000000
vn 1.568682 -1.573685 1.568274
v 0.026911 -0.010011 0.000799
vn 0.000000 0.000000 0.000000
v 0.026911 -0.010011 0.000800
vn -1.574764 -1.570789 -1.573322
v -0.003632 -0.009934 0.000000
vn -3.149529 -3.141583 0.000000
v -0.003632 -0.009934 0.000227
vn -1.574738 -1.570775 1.573322
v -0.003632 -0.009934 0.000800
vn -3.141593 0.000000 -3.141590
v -0.003632 -0.009856 0.000000
vn -3.141567 -0.000017 3.141590
v -0.003632 -0.009856 0.000800
vn 1.574769 1.570798 -1.573325
v 0.026911 -0.009737 0.000000
vn 1.572938 1.567904 1.573322
v 0.026911 -0.009737 0.000800
vn 0.000000 0.000000 0.000000
v 0.026911 -0.009737 0.000000
vn -1.566823 1.570791 -1.568267
v -0.003632 -0.009659 0.000000
vn -3.133647 3.141582 0.000000
v -0.003632 -0.009659 0.000573
vn -1.566823 1.570793 1.568267
v -0.003632 -0.009659 0.000800
vn 1.566637 -1.545650 -1.552277
v 0.026965 -0.011895 -0.000000
vn 0.000000 0.000000 0.000000
v 0.026965 -0.011895 0.000000
vn 1.566637 -1.545658 1.552277
v 0.026965 -0.011895 0.000800
vn -1.574755 -1.570791 -1.573312
v -0.003632 -0.011818 0.000000
vn -3.149509 -3.141582 0.000000
v -0.003632 -0.011818 0.000227
vn -1.574755 -1.570791 1.573312
v -0.003632 -0.011818 0.000800
vn -3.141593 0.000000 -3.141593
v -0.003632 -0.011751 0.000000
vn -3.141593 0.000000 3.141593
v -0.003632 -0.011751 0.000800
vn -0.000710 3.141586 -3.147101
v 0.026911 -0.011660 0.000000
vn -0.000710 3.141581 3.147101
v 0.026911 -0.011660 0.000800
vn 1.565912 1.595920 -1.583814
v 0.026961 -0.011660 -0.000000
vn 0.000000 0.000000 0.000000
v 0.026961 -0.011660 0.000000
vn 1.565912 1.595919 1.583814
v 0.026961 -0.011660 0.000800
vn 0.000000 0.000000 0.000000
v 0.026911 -0.011660 0.000000
vn 0.000000 0.000000 0.000000
v 0.026911 -0.011660 0.000001
vn 0.000000 0.000000 0.000000
v 0.026911 -0.011660 0.000800
vn -1.566822 1.570791 -1.568267
v -0.003632 -0.011583 0.000000
vn -3.133645 3.141582 0.000000
v -0.003632 -0.011583 0.000573
vn -1.566823 1.570793 1.568267
v -0.003632 -0.011583 0.000800
# 33 vertices, 0 vertices normals


usemtl material_0
f 2//2 4//4 1//1
f 7//7 9//9 1//1
f 4//4 7//7 1//1
f 9//9 2//2 1//1
f 5//5 4//4 2//2
f 8//8 6//6 2//2
f 10//10 8//8 2//2
f 6//6 5//5 2//2
f 9//9 10//10 2//2
f 5//5 7//7 4//4
f 12//12 7//7 5//5
f 6//6 8//8 5//5
f 13//13 12//12 5//5
f 8//8 13//13 5//5
f 12//12 9//9 7//7
f 10//10 14//14 8//8
f 14//14 13//13 8//8
f 12//12 13//13 9//9
f 9//9 14//14 10//10
f 13//13 14//14 9//9
f 25//25 27//27 15//15
f 27//27 17//17 15//15
f 19//19 18//18 15//15
f 17//17 19//19 15//15
f 23//23 25//25 15//15
f 18//18 23//23 15//15
f 24//24 20//20 17//17
f 27//27 24//24 17//17
f 20//20 19//19 17//17
f 21//21 23//23 18//18
f 19//19 21//21 18//18
f 31//31 21//21 19//19
f 32//32 31//31 19//19
f 20//20 32//32 19//19
f 24//24 22//22 20//20
f 22//22 32//32 20//20
f 31//31 23//23 21//21
f 24//24 33//33 22//22
f 33//33 32//32 22//22
f 27//27 25//25 23//23
f 24//24 27//27 23//23
f 31//31 32//32 23//23
f 33//33 24//24 23//23
f 32//32 33//33 23//23
# 44 faces, 0 coords texture

# End of File